<svg width="40" height="32" viewBox="0 0 40 19" fill="none" xmlns="http://www.w3.org/2000/svg">
<path fill-rule="evenodd" clip-rule="evenodd" d="M31.996 13.9396H34.7311C36.514 13.9396 37.9644 12.4475 37.9644 10.6131C37.9644 8.77811 36.514 7.28543 34.7311 7.28543C34.6123 7.28543 34.4819 7.29535 34.3217 7.3152L33.7954 7.38217L33.743 6.84265C33.4177 3.54597 30.7411 1.06044 27.5156 1.06044C26.1152 1.06044 24.7933 1.54974 23.7261 2.38817C23.4959 2.12151 23.2546 1.86911 23 1.63407C24.267 0.604639 25.8539 0 27.5156 0C31.1163 0 34.1097 2.60584 34.7055 6.22561C34.714 6.22561 34.7225 6.22561 34.7311 6.22561C37.0848 6.22561 39 8.19394 39 10.6131C39 13.0317 37.0848 15 34.7311 15H31.9716C31.996 14.7805 32.013 14.5578 32.013 14.3309C32.013 14.1988 32.0045 14.0692 31.996 13.9396Z" fill="white"/>
<path fill-rule="evenodd" clip-rule="evenodd" d="M6.35504 6.23802C6.8073 6.23802 7.25836 6.28634 7.69922 6.38237C9.10938 3.10404 12.4 0.917297 15.9604 0.917297C20.4033 0.917297 24.0981 4.05903 24.8335 8.42238C24.8443 8.42238 24.8545 8.42238 24.8647 8.42238C27.7702 8.42238 30.1334 10.7952 30.1334 13.7115C30.1334 16.6277 27.7702 19 24.8647 19H6.35504C2.85093 19 2.28882e-05 16.1374 2.28882e-05 12.6193C2.28882e-05 9.10059 2.85093 6.23802 6.35504 6.23802ZM1.27821 12.6193C1.27821 15.433 3.5557 17.7217 6.35503 17.7217H24.8647C27.0654 17.7217 28.8558 15.9233 28.8558 13.7115C28.8558 11.4997 27.0654 9.70067 24.8647 9.70067C24.7183 9.70067 24.5576 9.71201 24.3596 9.73646L23.7106 9.81699L23.6452 9.16622C23.244 5.19238 19.9402 2.19559 15.9604 2.19559C12.7046 2.19559 9.78236 4.27139 8.6883 7.36003L8.48197 7.9434L7.89295 7.75551C7.39271 7.59684 6.87567 7.51691 6.35503 7.51691C3.5557 7.51691 1.27821 9.80566 1.27821 12.6193Z" fill="white"/>
</svg>
