<svg width="20" height="32" viewBox="0 0 18 24 " fill="none" xmlns="http://www.w3.org/2000/svg">
<path fill-rule="evenodd" clip-rule="evenodd" d="M9.4692 0.147901L9 0.818182L8.5308 0.147901C8.81252 -0.0493004 9.18748 -0.0493004 9.4692 0.147901ZM9 2C8.80056 2.15557 8.54582 2.20134 8.25148 2.45153C7.50723 3.08415 6.51581 4.00143 5.52649 5.13915C3.52787 7.43756 1.63636 10.5219 1.63636 13.9091C1.63636 15.862 2.41217 17.735 3.79312 19.116C5.17407 20.4969 7.04704 21.2727 9 21.2727C10.953 21.2727 12.8259 20.4969 14.2069 19.116C15.5878 17.735 16.3636 15.862 16.3636 13.9091C16.3636 10.5219 14.4721 7.43756 12.4735 5.13915C11.4842 4.00143 10.4928 3.08415 9.74851 2.45153C9.45418 2.20134 9.19944 2.15557 9 2ZM8.5308 0.147901C8.5308 0.147901 8.5308 0.147901 9 0.818182C9.4692 0.147901 9.4692 0.147901 9.4692 0.147901L9.47036 0.148719L9.47228 0.150064L9.47832 0.15433L9.49913 0.169127C9.51681 0.18176 9.54203 0.199914 9.5743 0.223465C9.63881 0.27056 9.73152 0.33927 9.8484 0.428597C10.0821 0.60719 10.4128 0.868556 10.8083 1.20472C11.5981 1.87608 12.6522 2.85084 13.7083 4.0654C15.8006 6.47153 18 9.93268 18 13.9091C18 16.296 17.0518 18.5852 15.364 20.2731C13.6761 21.9609 11.3869 22.9091 9 22.9091C6.61305 22.9091 4.32387 21.9609 2.63604 20.2731C0.948212 18.5852 0 16.296 0 13.9091C0 9.93268 2.1994 6.47153 4.29169 4.0654C5.34782 2.85084 6.40186 1.87608 7.1917 1.20472C7.58718 0.868556 7.91793 0.60719 8.1516 0.428597C8.26848 0.33927 8.36119 0.27056 8.4257 0.223465C8.45797 0.199914 8.48319 0.18176 8.50087 0.169127L8.52168 0.15433L8.52772 0.150064L8.52964 0.148719L8.5308 0.147901Z" fill="white"/>
<path fill-rule="evenodd" clip-rule="evenodd" d="M14.9113 13.9312C15.3567 14.0078 15.6555 14.431 15.5789 14.8763C15.378 16.0428 14.8201 17.1182 13.9821 17.9541C13.144 18.79 12.0672 19.3452 10.9002 19.543C10.4547 19.6186 10.0323 19.3186 9.95677 18.8731C9.88125 18.4276 10.1812 18.0052 10.6267 17.9297C11.4597 17.7885 12.2283 17.3922 12.8265 16.7956C13.4246 16.1989 13.8229 15.4313 13.9662 14.5987C14.0429 14.1534 14.466 13.8545 14.9113 13.9312Z" fill="white"/>
</svg>
