<svg width="16" height="32" viewBox="0 0 16 32" fill="none" xmlns="http://www.w3.org/2000/svg">
<path d="M7.5791 1C9.98359 1 11.9333 2.94909 11.9336 5.35352V12.5986C11.9337 14.9198 12.6067 17.1199 13.4785 19.1475L13.8633 20.0059C15.1104 22.6895 15.2986 24.8389 14.5869 27.0225L14.4326 27.46C13.5573 29.7672 10.9274 30.9999 8.07715 31C4.8294 31 1.88782 29.3362 1.23926 26.625L1.18359 26.3594C0.811828 24.2869 1.00296 22.2737 1.7793 19.9688L1.94238 19.5029C2.65318 17.5518 3.22554 15.4482 3.22559 13.2529V5.35352C3.22584 2.94924 5.17482 1.00025 7.5791 1Z" stroke="white" stroke-width="2" stroke-linejoin="round"/>
<path d="M7.8824 11.7407C7.87566 13.7263 7.86892 15.7119 7.86219 17.6974C7.85765 19.0337 7.85312 20.3699 7.84858 21.7062C7.84626 22.3913 7.8502 21.2298 7.85079 21.0556C7.85967 18.4383 7.86855 15.8209 7.87744 13.2036C7.8799 12.4778 7.88236 11.752 7.88482 11.0262C7.88878 9.86046 7.87691 13.3578 7.87296 14.5235C7.86454 17.003 7.85613 19.4824 7.84772 21.9619" stroke="white" stroke-width="2" stroke-linecap="round" stroke-linejoin="round"/>
<ellipse cx="7.86668" cy="23" rx="1.66667" ry="1.66667" fill="white"/>
</svg>
