<svg xmlns="http://www.w3.org/2000/svg" version="1.1" xmlns:xlink="http://www.w3.org/1999/xlink" width="32" height="32" x="0" y="0" viewBox="0 0 64 64" style="enable-background:new 0 0 64 64" xml:space="preserve" class=""><g><g data-name="30-UV Index"><path d="M26 46h2v2h-2z" fill="#ffffff" opacity="1" data-original="#000000" class=""></path><path d="M35 64a9.137 9.137 0 0 1-9-9.25V50h2v4.75a7 7 0 1 0 14 0V42h-2v13a5 5 0 0 1-10 0V42h-2v2h-2v-3a1 1 0 0 1 1-1h4a1 1 0 0 1 1 1v14a3 3 0 0 0 6 0V41a1 1 0 0 1 1-1h4a1 1 0 0 1 1 1v13.75A9.137 9.137 0 0 1 35 64zM55 64a1 1 0 0 1-.939-.658l-8-22A1 1 0 0 1 47 40h4a1 1 0 0 1 .956.706L55 50.6l3.044-9.894A1 1 0 0 1 59 40h4a1 1 0 0 1 .939 1.342l-1.454 4-1.879-.684.966-2.658h-1.834l-3.782 12.294a1 1 0 0 1-1.912 0L50.262 42h-1.834L55 60.074l4.879-13.416 1.879.684-5.819 16A1 1 0 0 1 55 64zM52.579 36.2l-1.959-.4a18.632 18.632 0 0 0 .286-1.9l1.99.2a20.6 20.6 0 0 1-.317 2.1z" fill="#ffffff" opacity="1" data-original="#000000" class=""></path><path d="M23.6 51.252A21 21 0 1 1 53 32h-2a19 19 0 1 0-26.6 17.42zM31 1h2v8h-2zM55 31h8v2h-8z" fill="#ffffff" opacity="1" data-original="#000000" class=""></path><path d="M1 31h8v2H1zM9.37 10.788l1.415-1.414 5.655 5.655-1.414 1.414zM9.367 53.208l5.655-5.655 1.414 1.414-5.655 5.655zM47.55 15.033l5.655-5.655 1.414 1.414-5.655 5.655z" fill="#ffffff" opacity="1" data-original="#000000" class=""></path></g></g></svg>