<svg width="57" height="58" viewBox="0 0 57 58" fill="none" xmlns="http://www.w3.org/2000/svg">
<path d="M45.8412 51.9085C50.6895 48.5289 53.8549 43.7648 55.5778 38.1863C61.0671 20.4735 50.1285 2.96437 32.0177 0.276922C15.8302 -2.1255 0.283817 11.4339 0.00333786 28.1287C-0.116863 37.1276 3.00845 44.6606 9.53954 50.7277C10.0204 51.1756 10.4611 51.7456 11.1423 51.9085C11.1823 51.2977 11.1022 50.6463 11.3025 50.1169C11.9036 48.6103 11.4628 46.4929 12.7049 45.5157C15.8703 42.9911 19.4764 41.2402 23.6836 41.2402C23.8439 40.5887 23.9641 39.9779 24.1243 39.3264C23.8839 37.9827 24.6853 36.4353 23.363 35.3359C22.2812 34.4808 21.6802 33.3 21.0391 32.1598C20.2377 30.6125 19.4364 29.1874 18.1141 27.9658C16.4313 26.4185 16.4313 23.731 17.7134 21.7358C17.7134 19.5777 17.6333 17.4196 17.7134 15.2208C17.8737 10.0495 22.762 6.2626 27.8507 6.58836C30.7756 6.79195 33.1797 8.09495 35.7841 8.95005C38.2684 9.76443 40.7927 12.7776 40.2317 16.198C39.9512 18.0304 39.4303 19.8627 39.3101 21.7358C40.5122 23.4053 40.5923 25.4005 39.4704 26.8257C37.7074 29.1467 36.5855 31.9563 34.6622 34.0736C33.1797 35.7024 32.739 37.2904 32.8592 39.2857C33.0195 39.9372 33.1797 40.5887 33.2999 41.2402C34.9026 40.9552 36.1848 42.0953 37.6674 42.1767C39.9112 42.0546 42.195 41.8509 43.2368 44.5791L43.2769 44.6199C44.519 44.4163 45.0399 44.9456 44.7995 46.2079C44.8796 48.1624 46.0816 49.9133 45.8412 51.9085Z" fill="#A2A6AA"/>
<path d="M37.7474 42.1359C36.2248 42.0545 34.9426 40.8736 33.3799 41.1994C33.3799 41.2808 33.3399 41.3215 33.3399 41.403C32.0577 45.4342 32.0176 45.4749 29.3331 42.4617C28.6118 41.6473 28.2512 41.8102 27.6903 42.5431C27.0091 43.4389 26.2078 44.2533 25.3663 45.1898C24.5249 43.8868 24.0441 42.5838 23.7235 41.1994C19.5164 41.1994 15.9503 42.9503 12.7449 45.4749C11.5028 46.4521 11.9034 48.5695 11.3425 50.0761C11.1421 50.6055 11.2223 51.2977 11.1822 51.8678C17.3527 57.0798 24.4848 58.7085 32.2981 57.7313C37.3467 57.1205 41.9545 55.2881 45.8812 51.8678C46.1216 49.8725 44.8795 48.1216 44.9196 46.1671C44.1583 45.8414 43.5973 45.3934 43.397 44.5791L43.3569 44.5383C41.5138 43.8054 39.6706 43.0725 37.8275 42.3395C37.7874 42.3395 37.7874 42.2174 37.7474 42.1359Z" fill="#7C7B7B"/>
<path d="M17.7532 21.6546C16.431 23.6498 16.471 26.378 18.1539 27.8846C19.4761 29.1061 20.2775 30.572 21.0789 32.0786C21.6799 33.2188 22.321 34.3996 23.4028 35.2547C24.7251 36.3134 23.8836 37.9014 24.1641 39.2451C27.2493 41.5661 28.7719 42.3398 32.939 39.2044C32.8188 37.2092 33.2596 35.5804 34.7421 33.9924C36.6654 31.875 37.7873 29.0654 39.5503 26.7444C40.6321 25.3193 40.552 23.324 39.39 21.6546C36.8657 21.5324 38.4284 23.9348 37.2664 25.075C37.026 22.6726 35.6236 20.7588 36.7054 18.3564C37.4266 16.7683 36.5852 15.506 35.1428 14.6509C33.6602 13.7958 32.8989 14.8952 32.1777 15.8318C31.2161 17.1348 30.2545 18.2749 28.5315 18.6007C27.049 18.8857 26.0072 20.8402 23.9237 19.5372C23.4028 19.2114 21.1991 19.9444 20.7583 21.6953C20.4778 22.754 20.1573 23.8127 19.8368 24.8714C19.4361 24.0977 19.396 23.3241 19.2758 22.5504C19.0755 21.7767 18.795 21.0438 17.7532 21.6546Z" fill="#E3E3E3"/>
<path d="M17.7538 21.6545C18.7955 21.0437 19.0359 21.7767 19.1962 22.5503C19.3164 23.2833 19.3565 24.0569 19.7572 24.8713C20.0777 23.8126 20.3983 22.7539 20.6787 21.6952C21.1195 19.9443 23.3232 19.2113 23.8441 19.5371C25.9277 20.8401 26.9294 18.8856 28.4519 18.6006C30.1749 18.2748 31.1365 17.1347 32.0981 15.8317C32.8194 14.8952 33.5807 13.7957 35.0632 14.6508C36.5056 15.5059 37.347 16.7682 36.6258 18.3563C35.544 20.7587 36.9464 22.7132 37.1868 25.0749C38.3487 23.9348 36.7861 21.5323 39.3104 21.6545C39.4306 19.7814 39.9515 17.9491 40.2319 16.1167C40.7528 12.6963 38.2686 9.72385 35.7844 8.86876C33.18 8.01366 30.7759 6.66991 27.8509 6.50704C22.7623 6.18129 17.874 10.0089 17.7137 15.1395C17.7137 17.3383 17.7538 19.4964 17.7538 21.6545Z" fill="#595450"/>
<path d="M32.8991 39.2449C28.732 42.3396 27.2094 41.6066 24.1242 39.2856C23.9639 39.9371 23.8437 40.5887 23.6834 41.1994C24.004 42.5839 24.4848 43.8869 25.3262 45.1899C26.1677 44.2126 26.969 43.439 27.6502 42.5432C28.2111 41.7695 28.5717 41.6066 29.293 42.4617C31.9775 45.5157 32.0176 45.4749 33.2998 41.403C33.3398 41.3216 33.3398 41.2809 33.3398 41.1994C33.2196 40.5479 33.0594 39.8964 32.8991 39.2449Z" fill="#EDEDED"/>
<path d="M37.7474 42.1361C37.7474 42.2175 37.7474 42.2989 37.7875 42.3396C39.6306 43.0726 41.4738 43.8055 43.3169 44.5385C42.2751 41.8103 39.9912 42.0139 37.7474 42.1361Z" fill="#7F817B"/>
<path d="M43.3571 44.62C43.5575 45.4751 44.1585 45.923 44.8797 46.208C45.1201 44.9457 44.6393 44.4164 43.3571 44.62Z" fill="#7F817B"/>
</svg>
