<svg
    width="44"
    height="44"
    viewBox="0 0 44 44"
    fill="none"
    xmlns="http://www.w3.org/2000/svg"
    >
    <path
        d="M29.3325 42.1669H10.0825C7.83847 42.1697 5.65786 41.4226 3.88712 40.0441C2.11639 38.6656 0.85709 36.735 0.309314 34.5588C-0.238461 32.3827 -0.0432964 30.0859 0.863801 28.0334C1.7709 25.9809 3.3379 24.2903 5.31583 23.2304C4.23039 21.1532 3.66425 18.844 3.66583 16.5002C3.67672 12.9038 5.00867 9.4367 7.40851 6.75799C9.80834 4.07929 13.1087 2.37573 16.6824 1.97111C20.256 1.5665 23.8538 2.48904 26.7918 4.56339C29.7297 6.63773 31.8031 9.71927 32.6178 13.2222C36.1144 14.0435 39.1881 16.1192 41.2561 19.0558C43.3241 21.9924 44.2426 25.5857 43.8375 29.1545C43.4325 32.7233 41.7319 36.0194 39.0584 38.4178C36.3848 40.8162 32.9242 42.1502 29.3325 42.1669ZM18.3325 5.50025C15.416 5.50316 12.6198 6.66302 10.5575 8.72529C8.49527 10.7876 7.33541 13.5838 7.3325 16.5002C7.32959 18.8541 8.08994 21.1454 9.4995 23.0306L11.1165 25.2178L8.48383 25.8979C6.9709 26.2832 5.65097 27.2082 4.7725 28.4989C3.89403 29.7895 3.5176 31.3567 3.71408 32.9055C3.91055 34.4544 4.66638 35.878 5.83928 36.9084C7.01219 37.9388 8.52128 38.5049 10.0825 38.5002H29.3325C32.104 38.4733 34.7631 37.4011 36.7781 35.4981C38.7932 33.5952 40.0156 31.0016 40.2009 28.2363C40.3862 25.4709 39.5208 22.7375 37.7777 20.5826C36.0346 18.4278 33.5422 17.0104 30.7992 16.6139L29.4113 16.4306L29.228 15.0409C28.871 12.4027 27.5708 9.98296 25.5679 8.2291C23.565 6.47524 20.9948 5.50588 18.3325 5.50025V5.50025Z"
        fill="white"
    />
</svg>