<svg width="31" height="39" viewBox="0 0 31 39" fill="none" xmlns="http://www.w3.org/2000/svg">
<path d="M30.3405 1.32954C30.7048 1.32948 31 1.03187 31 0.66477C31 0.297628 30.7047 0 30.3404 0V0.66477C30.3404 0 30.3404 0 30.3404 0L30.3362 5.31972e-06L30.326 3.41088e-05L30.288 0.000255212C30.2548 0.000504568 30.2064 0.000997424 30.1433 0.00197142C30.0171 0.00391938 29.8325 0.0077924 29.5956 0.0154934C29.1219 0.0308933 28.439 0.0616128 27.5962 0.122906C25.9118 0.245425 23.5841 0.490449 21.0112 0.981044C15.8964 1.95633 9.68332 3.92517 5.68958 7.95036C1.67138 12.0002 1.0834 16.374 1.517 19.7244C1.7325 21.3896 2.19868 22.798 2.61029 23.79C2.81643 24.2869 3.00988 24.6816 3.15331 24.9547C3.22507 25.0913 3.28442 25.1977 3.32672 25.2713C3.34788 25.3082 3.36479 25.3368 3.37687 25.357L3.3913 25.381L3.39567 25.3881L3.39712 25.3905C3.39712 25.3905 3.39794 25.3918 3.56667 25.2857L3.39807 25.392C3.42514 25.4357 3.45642 25.4751 3.49104 25.51C3.02895 26.8867 2.60522 28.2591 2.22533 29.5609C1.53469 31.9276 0.982422 34.0845 0.602809 35.6497C0.412951 36.4325 0.266152 37.0679 0.166703 37.508C0.116976 37.7281 0.0790788 37.8994 0.0535488 38.016L0.0245934 38.1492L0.0171961 38.1836L0.0147869 38.1949C0.0147869 38.1949 0.0145858 38.1958 0.659521 38.3351L0.0147869 38.1949C-0.0615391 38.5539 0.165133 38.9082 0.52132 38.9851C0.877508 39.062 1.22813 38.8334 1.30446 38.4744L1.30666 38.4641L1.31364 38.4316L1.34171 38.3025C1.36664 38.1887 1.40389 38.0202 1.45293 37.8032C1.55101 37.3691 1.69621 36.7407 1.88423 35.9654C2.26038 34.4145 2.80741 32.2782 3.49088 29.9361C4.86567 25.2249 6.76661 19.7752 8.90337 16.5448C11.0366 13.3197 13.707 11.1648 15.8496 9.81511C16.9199 9.1409 17.8548 8.66999 18.5189 8.3688C18.8508 8.21827 19.1146 8.11034 19.2932 8.04077C19.3825 8.00599 19.4505 7.98081 19.4951 7.96471L19.544 7.94731L19.5547 7.94359L19.5564 7.94301C19.9017 7.82671 20.0884 7.45038 19.9732 7.10225C19.858 6.75395 19.4845 6.56571 19.1389 6.68182L19.3301 7.25981C19.1389 6.68182 19.1389 6.68182 19.1389 6.68182L19.136 6.6828L19.1307 6.68462L19.1129 6.69075C19.098 6.69597 19.0768 6.70344 19.0497 6.71325C18.9954 6.73285 18.9174 6.76178 18.8178 6.80057C18.6186 6.87815 18.3327 6.99528 17.9775 7.15636C17.2675 7.47839 16.2787 7.97693 15.1504 8.68766C12.8958 10.1079 10.0697 12.3847 7.80577 15.8073C6.42455 17.8955 5.16051 20.8097 4.07281 23.8346C3.99587 23.6699 3.91293 23.4835 3.82731 23.2771C3.4488 22.3648 3.0218 21.0726 2.82507 19.5524C2.4342 16.5322 2.94551 12.5963 6.62236 8.89049C10.3237 5.16002 16.2028 3.25104 21.2565 2.28741C23.7678 1.80855 26.0435 1.56884 27.6912 1.449C28.5146 1.38911 29.18 1.35924 29.6381 1.34434C29.8672 1.3369 30.0443 1.3332 30.1635 1.33136C30.223 1.33044 30.2681 1.32998 30.2978 1.32976L30.3309 1.32957L30.3386 1.32954L30.3405 1.32954Z" fill="#4FE354"/>
<path d="M29.4352 3.35322C29.7833 3.46119 29.9787 3.83319 29.8716 4.1841L29.2412 3.9886C29.8716 4.1841 29.8716 4.1841 29.8716 4.1841L29.8706 4.18738L29.868 4.19588L29.858 4.22824L29.8192 4.35246C29.785 4.46097 29.7344 4.61991 29.6682 4.82331C29.5359 5.23006 29.341 5.81487 29.0901 6.53002C28.5884 7.95961 27.8615 9.91344 26.9607 12.0086C26.0607 14.102 24.9825 16.3472 23.7765 18.3553C22.5762 20.3541 21.223 22.1629 19.7596 23.3429C16.8751 25.6686 13.9741 26.2584 11.7899 26.2584C10.7013 26.2584 9.79263 26.1122 9.15235 25.9647C8.8319 25.8909 8.57765 25.8165 8.4005 25.7594C8.31189 25.7308 8.24246 25.7065 8.19356 25.6887C8.16911 25.6798 8.14978 25.6725 8.13574 25.6671L8.11867 25.6605L8.11315 25.6583L8.11115 25.6575C8.11115 25.6575 8.10965 25.6569 8.35461 25.0397L8.10965 25.6569C7.77143 25.5205 7.60692 25.1337 7.74221 24.7928C7.87732 24.4523 8.26032 24.2865 8.59821 24.4219L8.60535 24.4247L8.6418 24.4382C8.6761 24.4507 8.73013 24.4697 8.80255 24.4931C8.94746 24.5398 9.16556 24.6039 9.44629 24.6686C10.0084 24.7981 10.8173 24.9289 11.7899 24.9289C13.7281 24.9289 16.3236 24.4107 18.9355 22.3047C20.2203 21.2687 21.4779 19.6152 22.648 17.6669C23.8124 15.7279 24.864 13.5414 25.7503 11.4799C26.6359 9.42025 27.3518 7.49625 27.8464 6.08672C28.0936 5.3823 28.2852 4.80722 28.4148 4.40899C28.4796 4.20989 28.5288 4.05505 28.5618 3.9504L28.5988 3.83185L28.608 3.80222L28.6107 3.79342C28.7178 3.44252 29.087 3.24525 29.4352 3.35322Z" fill="#4FE354"/>
<path d="M21.355 16.8003C21.6971 16.2947 21.5677 15.6054 21.0661 15.2607C20.5645 14.9159 19.8806 15.0463 19.5386 15.5519C17.8614 18.0308 16.6431 19.3276 15.5203 19.9982C14.4596 20.6317 13.3751 20.7698 11.7578 20.613C11.1534 20.5543 10.6164 21.0006 10.5582 21.6097C10.5001 22.2188 10.9428 22.7601 11.5472 22.8187C13.4029 22.9986 15.0204 22.8724 16.6411 21.9046C18.1995 20.9738 19.6419 19.3324 21.355 16.8003Z" fill="#4FE354"/>
</svg>
