<svg width="64" height="39" viewBox="0 0 57 22" fill="none" xmlns="http://www.w3.org/2000/svg">
<path d="M35.4443 0.338867C40.1438 0.338867 44.1341 3.38007 45.5527 7.60254L45.6465 7.88086L45.9346 7.82812C46.4925 7.72616 47.0726 7.67285 47.667 7.67285C52.2556 7.673 55.8828 10.8515 55.8828 14.667C55.8826 18.1489 52.8677 21.096 48.8477 21.5889L48.5498 21.626V21.6611H4.40039C2.15763 21.6611 0.338867 19.8424 0.338867 17.5996L0.347656 17.3896L0.349609 17.3633L0.347656 17.3369C0.341999 17.2624 0.338873 17.1869 0.338867 17.1113C0.338867 15.91 1.06958 14.7808 2.33594 13.9365C3.59994 13.0939 5.36571 12.5616 7.33301 12.5615H7.67285V12.2227C7.67285 9.95935 9.81426 7.99236 12.7275 7.70703L12.9316 7.6875L13.0088 7.49707C14.1118 4.77658 17.1535 2.78336 20.7773 2.7832C22.9641 2.7832 24.9456 3.51127 26.4131 4.68945L26.6865 4.90918L26.8965 4.62793C28.8409 2.02424 31.9461 0.338901 35.4443 0.338867Z" stroke="#13A2D7" stroke-width="0.678261"/>
<path d="M22 6.11108C19.5956 6.28097 18.5419 6.83874 17.1111 8.55553" stroke="#13A2D7" stroke-width="1.01739" stroke-linecap="round"/>
</svg>
