<svg width="44" height="39" viewBox="0 0 38 33" fill="none" xmlns="http://www.w3.org/2000/svg">
<g clip-path="url(#clip0_100_1477)">
<path d="M37.8478 31.4034L19.8738 0.502857C19.6901 0.188571 19.3544 0 18.9934 0C18.6324 0 18.2968 0.194857 18.1131 0.502857L0.139093 31.4034C-0.0445739 31.7177 -0.0445739 32.1011 0.139093 32.4091C0.322759 32.7234 0.658426 32.912 1.01943 32.912H36.9674C37.3284 32.912 37.6641 32.7171 37.8478 32.4091C38.0314 32.0949 38.0314 31.7114 37.8478 31.4034Z" fill="black"/>
<path d="M2.78589 30.8958L18.9992 3.14502L35.2126 30.8958H2.78589Z" fill="#F6BD16"/>
<path d="M21.3988 27.3195C21.3989 27.6323 21.3369 27.9421 21.2163 28.2311C21.0958 28.5201 20.919 28.7828 20.6961 29.004C20.4733 29.2252 20.2087 29.4007 19.9175 29.5204C19.6263 29.6402 19.3142 29.7018 18.999 29.7018C18.6838 29.7018 18.3717 29.6402 18.0805 29.5204C17.7893 29.4007 17.5247 29.2252 17.3019 29.004C17.079 28.7828 16.9023 28.5201 16.7817 28.2311C16.6611 27.9421 16.5991 27.6323 16.5992 27.3195C16.5991 27.0066 16.6611 26.6969 16.7817 26.4078C16.9023 26.1188 17.079 25.8562 17.3019 25.6349C17.5247 25.4137 17.7893 25.2382 18.0805 25.1185C18.3717 24.9988 18.6838 24.9371 18.999 24.9371C19.3142 24.9371 19.6263 24.9988 19.9175 25.1185C20.2087 25.2382 20.4733 25.4137 20.6961 25.6349C20.919 25.8562 21.0958 26.1188 21.2163 26.4078C21.3369 26.6969 21.3989 27.0066 21.3988 27.3195Z" fill="black" stroke="black" stroke-opacity="0.4" stroke-width="0.0636054" stroke-linecap="square"/>
<path d="M19.0002 10.5975C17.6925 10.5975 16.64 11.6644 16.64 12.9897L17.3378 21.3693C17.4711 22.4533 17.5849 23.0674 18.0357 23.3562C18.33 23.4893 18.656 23.5651 19.0002 23.5651C19.3427 23.5651 19.6673 23.4902 19.9606 23.3583C20.4138 23.0703 20.529 22.4557 20.6626 21.3693L21.3605 12.9897C21.3605 11.6644 20.3079 10.5975 19.0002 10.5975Z" fill="black" stroke="black" stroke-width="0.0883409" stroke-linecap="square"/>
</g>
<defs>
<clipPath id="clip0_100_1477">
<rect width="44" height="39" fill="white"/>
</clipPath>
</defs>
</svg>
