<svg xmlns="http://www.w3.org/2000/svg" version="1.1" xmlns:xlink="http://www.w3.org/1999/xlink" width="39" height="39" x="0" y="0" viewBox="0 0 512 512" style="enable-background:new 0 0 512 512" xml:space="preserve" class=""><g><path d="m427.455 490.495-12.05-75.309a76.364 76.364 0 0 0-25.825-45.995 76.323 76.323 0 0 0-49.49-18.24h-45.34v-23.535c33.653-2.497 60.628-27.617 66.593-59.645h10.267c22.194 0 40.25-18.051 40.25-40.239v-11.601c0-13.229-6.417-24.985-16.3-32.326 7.285-23.463 11.012-46.101 10.527-64.273a7.5 7.5 0 0 0-7.697-7.297 7.5 7.5 0 0 0-7.297 7.697c.427 16.039-2.828 36.149-9.205 57.285-7.471-1.975-12.399-1.134-19.286-1.335v-35.251a39.742 39.742 0 0 0-20.86-34.978c-5.614-3.038-12.366-2.975-18.057.165-23.383 12.897-56.058 19.047-89.646 16.868-19.485-1.263-38.632-5.293-55.368-11.653a18.769 18.769 0 0 0-22.02 6.715c-4.744 6.724-7.251 14.636-7.251 22.883v35.251c-6.919.203-11.818-.641-19.299 1.338-9.604-31.805-11.91-60.146-6.079-76.854 1.102-3.195 1.012-6.65-.252-9.722-2.313-5.638-3.301-11.374-2.935-17.048 1.083-16.745 13.802-32.04 35.813-43.065 23.319-11.683 53.817-16.972 85.887-14.895 54.712 3.55 101.579 28.506 111.437 59.328 1.78 5.601 6.981 9.41 12.927 9.477 7.08.095 12.381 2.365 16.207 6.941a7.497 7.497 0 0 0 10.564.943 7.498 7.498 0 0 0 .943-10.564c-6.536-7.818-15.499-11.953-26.662-12.3C355.532 32.657 304.581 4.43 243.505.467c-34.676-2.24-67.912 3.597-93.574 16.451-26.974 13.513-42.623 33.226-44.064 55.51-.504 7.809.786 15.624 3.838 23.245-9.358 27.507.37 67.332 6.731 87.935-9.88 7.341-16.294 19.096-16.294 32.322v11.601c0 22.188 18.056 40.239 40.25 40.239h10.267c5.961 32.008 32.917 57.146 66.593 59.645v23.535h-45.34a76.328 76.328 0 0 0-49.49 18.24 76.358 76.358 0 0 0-25.824 45.994l-5.04 31.489a7.5 7.5 0 0 0 7.414 8.687 7.5 7.5 0 0 0 7.396-6.315l5.041-31.49c4.784-29.901 30.229-51.604 60.503-51.604h17.205c13.124 24.528 38.86 40.13 66.885 40.13s53.761-15.602 66.885-40.13h17.205c30.273 0 55.719 21.703 60.503 51.604l12.051 75.312a3.566 3.566 0 0 1-3.524 4.132h-36.911v-44.322c0-4.143-3.357-7.5-7.5-7.5s-7.5 3.357-7.5 7.5V497h-202.42v-44.322c0-4.143-3.357-7.5-7.5-7.5s-7.5 3.357-7.5 7.5V497h-36.91a3.565 3.565 0 0 1-3.523-4.137l1.479-9.26a7.5 7.5 0 0 0-6.223-8.59 7.497 7.497 0 0 0-8.59 6.223l-1.479 9.255C82.734 501.779 91.46 512 102.881 512h306.238c11.453 0 20.141-10.253 18.336-21.505zM222.72 312.642a57.932 57.932 0 0 1-26.332-6.309c3.626-20.529 4.596-42.211 2.856-63.544 37.531 7.761 75.97 7.764 113.513 0-1.74 21.333-.77 43.015 2.856 63.544a57.948 57.948 0 0 1-26.332 6.309zm106.547-15.926c-2.694-18.751-3.085-38.356-1.115-57.568a283.113 283.113 0 0 0 19.449-5.938v21.113c0 16.689-7.059 31.752-18.334 42.393zm42.342-106.033c13.923 0 25.25 11.327 25.25 25.249v11.601c0 13.917-11.327 25.239-25.25 25.239H362.6v-62.089zm-202.703-64.487a3.764 3.764 0 0 1 3.08-1.591c.453 0 .912.081 1.355.25 18.115 6.885 38.769 11.242 59.726 12.601 36.362 2.358 72.037-4.459 97.861-18.703 1.199-.661 2.573-.7 3.674-.105a24.75 24.75 0 0 1 12.998 21.784v76.864c-59.273 21.738-123.928 21.738-183.201 0v-76.864a24.569 24.569 0 0 1 4.507-14.236zm-53.765 101.336v-11.601c0-13.922 11.327-25.249 25.25-25.249h9.009v62.089h-9.009c-13.923.001-25.25-11.322-25.25-25.239zm49.258 26.79V233.21a282.221 282.221 0 0 0 19.449 5.938c1.97 19.212 1.578 38.817-1.115 57.568-11.276-10.641-18.334-25.704-18.334-42.394zM256 391.081c-19.656 0-37.915-9.569-49.233-25.13 11.379-.02 10.33.038 11.332-.039 7.856-.603 14.152-6.914 14.152-14.881v-23.39h47.5v23.39c0 7.967 6.296 14.277 14.152 14.881.999.077-.015.019 11.332.039-11.32 15.561-29.579 25.13-49.235 25.13z" fill="#ff0000" opacity="1" data-original="#000000" class=""></path><path d="M298.669 189.793a7.499 7.499 0 0 0-7.5 7.5v3.519c0 4.143 3.357 7.5 7.5 7.5s7.5-3.357 7.5-7.5v-3.519a7.5 7.5 0 0 0-7.5-7.5zM213.331 189.793a7.499 7.499 0 0 0-7.5 7.5v3.519c0 4.143 3.357 7.5 7.5 7.5s7.5-3.357 7.5-7.5v-3.519a7.5 7.5 0 0 0-7.5-7.5zM281.972 176.406c10.768-4.459 22.627-4.459 33.395 0a7.45 7.45 0 0 0 2.867.573 7.504 7.504 0 0 0 6.932-4.632 7.498 7.498 0 0 0-4.059-9.799c-14.469-5.994-30.406-5.994-44.875 0a7.499 7.499 0 0 0-4.059 9.799 7.499 7.499 0 0 0 9.799 4.059zM196.634 176.406c10.768-4.459 22.627-4.459 33.395 0a7.45 7.45 0 0 0 2.867.573 7.504 7.504 0 0 0 6.932-4.632 7.498 7.498 0 0 0-4.059-9.799c-14.469-5.994-30.406-5.994-44.875 0a7.499 7.499 0 0 0-4.059 9.799 7.499 7.499 0 0 0 9.799 4.059zM218.043 271.266c12.594 2.626 25.275 3.939 37.957 3.939s25.363-1.313 37.957-3.939a7.5 7.5 0 0 0 5.811-8.873 7.496 7.496 0 0 0-8.873-5.811c-23.154 4.828-46.635 4.828-69.789 0-4.054-.851-8.028 1.756-8.873 5.811a7.499 7.499 0 0 0 5.81 8.873zM299.768 288.722c-.845-4.055-4.815-6.662-8.873-5.811-23.154 4.828-46.635 4.828-69.789 0-4.054-.853-8.028 1.755-8.873 5.811a7.5 7.5 0 0 0 5.811 8.873c12.594 2.626 25.275 3.939 37.957 3.939s25.363-1.313 37.957-3.939a7.5 7.5 0 0 0 5.81-8.873z" fill="#ff0000" opacity="1" data-original="#000000" class=""></path></g></svg>