<svg width="26" height="24" viewBox="0 0 26 24" fill="none" xmlns="http://www.w3.org/2000/svg">
<path d="M10.6929 19.0456C11.9409 20.5577 13.5827 21.7256 15.4588 22.3882C14.3364 22.7845 13.13 23 11.8739 23C5.8684 23 1 18.0751 1 12C1 5.92487 5.8684 1 11.8739 1C13.13 1 14.3364 1.21546 15.4588 1.61183C11.2148 3.11052 8.16996 7.19556 8.16996 12C8.16996 12.0218 8.17002 12.0436 8.17014 12.0654M10.6929 19.0456H9.51099C7.5263 19.0456 5.9174 17.418 5.9174 15.4103C5.9174 13.8681 6.86285 12.6096 8.17014 12.0654M10.6929 19.0456H21.4064C23.3911 19.0456 25 17.418 25 15.4103C25 13.616 23.7149 12.1253 22.025 11.8287C21.8088 10.0301 20.2941 8.63682 18.4578 8.63682C17.5407 8.63682 16.7038 8.98439 16.0688 9.55642C15.4117 8.69479 14.3808 8.13977 13.2219 8.13977C11.2372 8.13977 9.62827 9.76734 9.62827 11.7751C9.11514 11.7751 8.62111 11.8777 8.17014 12.0654" stroke="white" stroke-linejoin="round"/>
</svg>
