<svg width="19" height="26" viewBox="0 0 19 26" fill="none" xmlns="http://www.w3.org/2000/svg">
<path d="M8.29612 12.8807H15.226M9.16236 14.6131H15.226M9.16236 16.3456H14.3598M8.95849 18.0781H13.2897M8.29612 19.8106H11.7611M7.22601 21.543H9.82472M7.76107 23.2755H9.49354M9.49354 25.008H10.3598M4.61678 12.55L3.65918 14.9438H5.9774L4.61678 18.6479M3.88972 10.992C2.01763 10.992 0.5 9.49962 0.5 7.65867C0.5 5.75668 2.11321 4.32534 4.00034 4.32534C4.00034 2.48439 5.51797 0.992004 7.39007 0.992004C8.48329 0.992004 9.45564 1.50092 10.0755 2.29098C10.6744 1.76646 11.4639 1.44776 12.329 1.44776C14.0611 1.44776 15.4898 2.72535 15.6937 4.37453C17.2878 4.64648 18.5 6.01337 18.5 7.65867C18.5 9.49962 16.9824 10.992 15.1103 10.992H3.88972Z" stroke="white" stroke-linecap="round"/>
</svg>
