<svg width="38" height="38" viewBox="0 0 38 38" fill="none" xmlns="http://www.w3.org/2000/svg">
<g clip-path="url(#clip0_80_119)">
<path d="M33.25 1.58374H4.74999C3.49021 1.58374 2.28203 2.08419 1.39123 2.97498C0.500434 3.86578 -1.14441e-05 5.07396 -1.14441e-05 6.33374L-1.14441e-05 36.4171H38V6.33374C38 5.07396 37.4995 3.86578 36.6087 2.97498C35.7179 2.08419 34.5098 1.58374 33.25 1.58374ZM4.74999 4.75041H33.25C33.6699 4.75041 34.0726 4.91722 34.3696 5.21415C34.6665 5.51109 34.8333 5.91381 34.8333 6.33374V7.38982L22.3598 19.8649C21.4675 20.7537 20.2594 21.2526 19 21.2526C17.7406 21.2526 16.5325 20.7537 15.6402 19.8649L3.16666 7.38982V6.33374C3.16666 5.91381 3.33347 5.51109 3.6304 5.21415C3.92734 4.91722 4.33006 4.75041 4.74999 4.75041ZM3.16666 33.2504V11.8754L13.4013 22.1037C14.8875 23.5861 16.9009 24.4186 19 24.4186C21.0991 24.4186 23.1125 23.5861 24.5987 22.1037L34.8333 11.8754V33.2504H3.16666Z" fill="white"/>
</g>
<defs>
<clipPath id="clip0_80_119">
<rect width="38" height="38" fill="white"/>
</clipPath>
</defs>
</svg>
