<svg width="38" height="38" viewBox="0 0 38 38" fill="none" xmlns="http://www.w3.org/2000/svg">
<g clip-path="url(#clip0_80_113)">
<path d="M27.8871 20.5358L22.4832 25.9413C17.8727 23.9886 14.2064 20.3137 12.2644 15.6987L17.6477 10.3059L7.73763 0.386282L2.71846 5.40545C1.84641 6.28045 1.157 7.32007 0.690293 8.46386C0.223587 9.60766 -0.0110999 10.8328 -0.000124164 12.0681C-0.000124164 23.5441 14.6489 38.1931 26.1249 38.1931C27.3596 38.2038 28.5842 37.9692 29.7276 37.5031C30.871 37.037 31.9106 36.3486 32.786 35.4777L37.8067 30.4554L27.8871 20.5358ZM30.5455 33.2389C29.9636 33.8145 29.2733 34.269 28.5144 34.5758C27.7556 34.8827 26.9434 35.0359 26.1249 35.0265C16.256 35.0265 3.16654 21.9386 3.16654 12.0681C3.15681 11.2494 3.30998 10.437 3.61714 9.67809C3.9243 8.91917 4.37931 8.2289 4.95571 7.64745L7.73763 4.86553L13.178 10.3059L8.53246 14.9545L8.92196 15.9251C10.0628 18.9802 11.8475 21.7542 14.1549 24.0588C16.4623 26.3635 19.2383 28.1448 22.2948 29.2821L23.2543 29.6495L27.8871 25.0135L33.329 30.4554L30.5455 33.2389Z" fill="white"/>
</g>
<defs>
<clipPath id="clip0_80_113">
<rect width="38" height="38" fill="white"/>
</clipPath>
</defs>
</svg>
